<svg width="42" height="18" viewBox="0 0 42 18" fill="none" xmlns="http://www.w3.org/2000/svg">
<path d="M1.08228 8.84824C6.77436 6.62508 10.1929 -2.53728 15.6578 3.15548C21.1227 8.84824 23.8552 11.1252 28.8647 10.8975C33.8742 10.6698 40.9331 4.74945 40.9331 4.74945" stroke="#F1F1F1"/>
<path d="M1.08228 8.84824C6.77436 6.62508 10.1929 -2.53728 15.6578 3.15548C21.1227 8.84824 23.8552 11.1252 28.8647 10.8975C33.8742 10.6698 40.9331 4.74945 40.9331 4.74945" stroke="#F1F1F1"/>
<path d="M1.08228 12.0364C6.77436 9.81319 10.1929 0.650834 15.6578 6.34359C21.1227 12.0363 23.8552 14.3133 28.8647 14.0856C33.8742 13.8579 40.9331 7.93756 40.9331 7.93756" stroke="#9292FD"/>
<path d="M1.08228 12.0364C6.77436 9.81319 10.1929 0.650834 15.6578 6.34359C21.1227 12.0363 23.8552 14.3133 28.8647 14.0856C33.8742 13.8579 40.9331 7.93756 40.9331 7.93756" stroke="#9292FD"/>
<path d="M1.08228 15.2243C6.77436 13.0012 10.1929 3.83882 15.6578 9.53158C21.1227 15.2243 23.8552 17.5013 28.8647 17.2736C33.8742 17.0459 40.9331 11.1256 40.9331 11.1256" stroke="#F1F1F1"/>
<path d="M1.08228 15.2243C6.77436 13.0012 10.1929 3.83882 15.6578 9.53158C21.1227 15.2243 23.8552 17.5013 28.8647 17.2736C33.8742 17.0459 40.9331 11.1256 40.9331 11.1256" stroke="#F1F1F1"/>
</svg>
